<?xml version="1.0" encoding="utf-8"?><svg viewBox="0 0 44 50" xmlns="http://www.w3.org/2000/svg" xmlns:xlink="http://www.w3.org/1999/xlink"><style>:root>svg{display:none}:root>svg:target{display:block}</style><svg viewBox="0 0 30 28" id="cat-audio" xmlns="http://www.w3.org/2000/svg"><path fill-rule="evenodd" clip-rule="evenodd" d="M15 0a1.154 1.154 0 011.154 1.154v25.384a1.154 1.154 0 11-2.308 0V1.154A1.154 1.154 0 0115 0zm-4.615 4.615a1.154 1.154 0 011.154 1.154v16.154a1.154 1.154 0 01-2.308 0V5.77a1.154 1.154 0 011.154-1.154zm9.23 0A1.154 1.154 0 0120.77 5.77v16.154a1.154 1.154 0 11-2.307 0V5.77a1.154 1.154 0 011.153-1.154zM5.77 8.077A1.154 1.154 0 016.923 9.23v9.23a1.154 1.154 0 11-2.308 0v-9.23A1.154 1.154 0 015.77 8.077zm18.462 0a1.154 1.154 0 011.154 1.154v9.23a1.154 1.154 0 11-2.308 0v-9.23a1.154 1.154 0 011.154-1.154zM1.154 10.385a1.154 1.154 0 011.154 1.154v4.615a1.154 1.154 0 11-2.308 0v-4.615a1.154 1.154 0 011.154-1.154zm27.692 0A1.154 1.154 0 0130 11.539v4.615a1.154 1.154 0 11-2.308 0v-4.615a1.154 1.154 0 011.154-1.154z"/></svg><svg fill="none" viewBox="0 0 9 15" id="link-right" xmlns="http://www.w3.org/2000/svg"><path fill-rule="evenodd" clip-rule="evenodd" d="M7.659 8.46l.002.001.8-.8L1.801 1 1 1.8 6.859 7.66 1 13.518l.8.8L7.66 8.459z" fill="#06F"/><path d="M7.66 8.461l-.247.248.248.247.247-.247-.247-.248zM7.66 8.46l.247-.247-.247-.248-.248.248.248.247zm.802-.798l.248.247.247-.247-.247-.248-.248.248zM1.801 1l.247-.247L1.8.505l-.247.248L1.8 1zM1 1.8l-.247-.247-.248.247.248.248L1 1.8zM6.859 7.66l.247.247.248-.247-.248-.248-.247.248zM1 13.518l-.247-.248-.248.248.248.247.247-.247zm.8.8l-.247.247.247.248.248-.248-.248-.247zm6.108-6.104l-.002-.002-.495.495.002.002.495-.495zm.306-.8l-.8.8.494.495.8-.8-.494-.496zM1.553 1.246l6.66 6.661.496-.495L2.048.753l-.495.494zm-.306.8l.8-.8-.494-.494-.8.8.494.495zm5.86 5.364l-5.86-5.858-.494.495L6.61 7.906l.495-.495zm-5.86 6.354l5.86-5.859-.496-.495-5.858 5.86.495.494zm.8.305l-.8-.8-.494.495.8.8.495-.495zm5.364-5.858L1.553 14.07l.495.495 5.858-5.858-.495-.495z" fill="#06F"/></svg><svg fill="none" viewBox="0 0 30 30" id="plus---" xmlns="http://www.w3.org/2000/svg"><circle cx="15" cy="15" r="14.25" fill="#06F" stroke="#06F" stroke-width="1.5"/><path d="M15.789 14.156v-8.1a.786.786 0 00-1.567 0v8.1l-8.105-.006a.786.786 0 000 1.567l8.105.006-.005 8.105a.786.786 0 101.566 0l.006-8.105h8.1a.786.786 0 000-1.567h-8.1z" fill="#fff"/></svg><svg fill="none" viewBox="0 0 20 20" id="plus1" xmlns="http://www.w3.org/2000/svg"><path d="M10.789 9.156v-8.1a.786.786 0 00-1.567 0v8.1l-8.105-.005a.786.786 0 000 1.566l8.105.006-.005 8.105a.785.785 0 101.566 0l.006-8.105h8.1a.786.786 0 000-1.567h-8.1z" fill="#fff"/></svg><svg fill="none" viewBox="0 0 44 50" id="shortcuts-logo" xmlns="http://www.w3.org/2000/svg"><path fill-rule="evenodd" clip-rule="evenodd" d="M20.506 1.096a9.549 9.549 0 00-3.292 1.222c-.921.56-13.87 10.555-14.859 11.469-1.377 1.273-1.76 3.537-.89 5.26.38.753.91 1.284 3.217 3.227 1.52 1.28 2.749 2.377 2.732 2.44-.017.063-1.238 1.053-2.713 2.2-3.113 2.42-3.555 2.987-3.664 4.702-.086 1.358.2 2.352.92 3.196.685.803 13.579 11.772 14.873 12.653 2.934 1.997 6.89 2.05 9.904.132 1.087-.691 14.326-11.938 15.045-12.782.723-.846 1.01-1.84.923-3.199-.108-1.71-.548-2.274-3.661-4.704-1.477-1.153-2.698-2.145-2.713-2.204-.016-.06 1.214-1.154 2.731-2.433 2.305-1.942 2.835-2.474 3.215-3.227.87-1.724.489-3.98-.89-5.266-.98-.913-13.932-10.906-14.879-11.48-1.686-1.02-4.21-1.528-6-1.206zm3.402 3.272c.907.288 1.705.872 9.799 7.174 6.15 4.789 6.432 5.07 6.003 5.967-.236.495-5.546 5.162-5.885 5.174-.117.004-1.716-1.158-3.553-2.582-4.45-3.45-5.701-4.054-8.402-4.054-2.507 0-3.994.648-7.27 3.168l-2.222 1.708.814.726c1.587 1.417 1.348 1.415 3.137.023 2.2-1.71 2.843-2.112 3.872-2.413 1.248-.366 2.988-.237 4.16.308.982.456 6.991 5.062 6.912 5.296-.134.393-6.104 5.234-6.911 5.605-1.776.816-4.195.637-5.756-.424-.802-.546-13.71-11.462-14.225-12.03-.478-.527-.578-.966-.341-1.506.24-.549 14.24-11.477 15.325-11.963 1.423-.636 2.91-.695 4.543-.177zM13.731 29.95c1.688 1.425 3.43 2.749 3.993 3.033 2.625 1.33 5.592 1.346 8.246.044.724-.355 5.563-4.21 7.573-6.033.327-.296.387-.26 3.146 1.898 1.546 1.21 2.905 2.392 3.018 2.628.434.903.218 1.126-7.162 7.387-3.86 3.275-7.414 6.164-7.9 6.419-1.683.886-3.871.885-5.55-.003-1.206-.638-14.862-12.246-15.109-12.842-.326-.791.073-1.26 3.06-3.59l2.804-2.187.444.36c.243.198 1.79 1.497 3.437 2.887z" fill="#06F" stroke="#06F"/></svg></svg>