<?xml version="1.0" encoding="utf-8"?><svg viewBox="0 0 30 28" xmlns="http://www.w3.org/2000/svg" xmlns:xlink="http://www.w3.org/1999/xlink"><style>:root>svg{display:none}:root>svg:target{display:block}</style><svg fill="currentColor" class="abi abi-alarm" viewBox="0 0 16 16" id="alarm" xmlns="http://www.w3.org/2000/svg"><path d="M8.5 5.5a.5.5 0 00-1 0v3.362l-1.429 2.38a.5.5 0 10.858.515l1.5-2.5A.5.5 0 008.5 9V5.5z"/><path d="M6.5 0a.5.5 0 000 1H7v1.07a7.001 7.001 0 00-3.273 12.474l-.602.602a.5.5 0 00.707.708l.746-.746A6.97 6.97 0 008 16a6.97 6.97 0 003.422-.892l.746.746a.5.5 0 00.707-.708l-.601-.602A7.001 7.001 0 009 2.07V1h.5a.5.5 0 000-1h-3zm1.038 3.018a6.093 6.093 0 01.924 0 6 6 0 11-.924 0zM0 3.5c0 .753.333 1.429.86 1.887A8.035 8.035 0 014.387 1.86 2.5 2.5 0 000 3.5zM13.5 1c-.753 0-1.429.333-1.887.86a8.035 8.035 0 013.527 3.527A2.5 2.5 0 0013.5 1z"/></svg><svg fill="currentColor" class="bbi bbi-alt" viewBox="0 0 16 16" id="alt" xmlns="http://www.w3.org/2000/svg"><path d="M1 13.5a.5.5 0 00.5.5h3.797a.5.5 0 00.439-.26L11 3h3.5a.5.5 0 000-1h-3.797a.5.5 0 00-.439.26L5 13H1.5a.5.5 0 00-.5.5zm10 0a.5.5 0 00.5.5h3a.5.5 0 000-1h-3a.5.5 0 00-.5.5z"/></svg><svg viewBox="0 0 30 28" id="cat-audio" xmlns="http://www.w3.org/2000/svg"><path fill-rule="evenodd" clip-rule="evenodd" d="M15 0a1.154 1.154 0 011.154 1.154v25.384a1.154 1.154 0 11-2.308 0V1.154A1.154 1.154 0 0115 0zm-4.615 4.615a1.154 1.154 0 011.154 1.154v16.154a1.154 1.154 0 01-2.308 0V5.77a1.154 1.154 0 011.154-1.154zm9.23 0A1.154 1.154 0 0120.77 5.77v16.154a1.154 1.154 0 11-2.307 0V5.77a1.154 1.154 0 011.153-1.154zM5.77 8.077A1.154 1.154 0 016.923 9.23v9.23a1.154 1.154 0 11-2.308 0v-9.23A1.154 1.154 0 015.77 8.077zm18.462 0a1.154 1.154 0 011.154 1.154v9.23a1.154 1.154 0 11-2.308 0v-9.23a1.154 1.154 0 011.154-1.154zM1.154 10.385a1.154 1.154 0 011.154 1.154v4.615a1.154 1.154 0 11-2.308 0v-4.615a1.154 1.154 0 011.154-1.154zm27.692 0A1.154 1.154 0 0130 11.539v4.615a1.154 1.154 0 11-2.308 0v-4.615a1.154 1.154 0 011.154-1.154z"/></svg><svg fill="none" viewBox="0 0 9 15" id="link-right" xmlns="http://www.w3.org/2000/svg"><path fill-rule="evenodd" clip-rule="evenodd" d="M7.659 8.46l.002.001.8-.8L1.801 1 1 1.8 6.859 7.66 1 13.518l.8.8L7.66 8.459z" fill="#06F"/><path d="M7.66 8.461l-.247.248.248.247.247-.247-.247-.248zM7.66 8.46l.247-.247-.247-.248-.248.248.248.247zm.802-.798l.248.247.247-.247-.247-.248-.248.248zM1.801 1l.247-.247L1.8.505l-.247.248L1.8 1zM1 1.8l-.247-.247-.248.247.248.248L1 1.8zM6.859 7.66l.247.247.248-.247-.248-.248-.247.248zM1 13.518l-.247-.248-.248.248.248.247.247-.247zm.8.8l-.247.247.247.248.248-.248-.248-.247zm6.108-6.104l-.002-.002-.495.495.002.002.495-.495zm.306-.8l-.8.8.494.495.8-.8-.494-.496zM1.553 1.246l6.66 6.661.496-.495L2.048.753l-.495.494zm-.306.8l.8-.8-.494-.494-.8.8.494.495zm5.86 5.364l-5.86-5.858-.494.495L6.61 7.906l.495-.495zm-5.86 6.354l5.86-5.859-.496-.495-5.858 5.86.495.494zm.8.305l-.8-.8-.494.495.8.8.495-.495zm5.364-5.858L1.553 14.07l.495.495 5.858-5.858-.495-.495z" fill="#06F"/></svg></svg>